<?xml version="1.0" encoding="UTF-8"?><svg id="a" xmlns="http://www.w3.org/2000/svg" viewBox="0 0 258 170"><defs><style>.b{fill:#010101;fill-rule:evenodd;}</style></defs><path class="b" d="M88.62233,18.76235c10.78417,1.08736,20.98824,4.69048,29.7736,10.51288,1.31321.87036,5.52658,3.88577,5.94983,4.25782.06154.05456-.58935.4898-1.44724.96703-2.50046,1.39167-4.33101,2.97009-6.47739,5.58119l-1.03635,1.26152-1.84481-1.29049c-26.52006-18.55919-62.80907-10.37211-78.73298,17.76236-3.5779,6.32221-6.05836,14.2397-6.59944,21.07046l-.09434,1.18583.46537.14995c7.0035,2.25617,20.62049,4.12426,36.79816,5.04869l1.6181.09196v11.81766l-1.68749-.09292c-14.59426-.80108-26.61404-2.31272-34.92597-4.39185l-1.82984-.45699.08835.62999c.80023,5.71076,3.392,12.94812,6.59022,18.40152,9.72659,16.58332,26.77877,26.5481,46.05719,26.91121l3.75378.07105v11.68435l-3.75378-.08317c-42.27296-.94605-72.59143-39.32607-63.38504-80.24101C25.13712,37.45957,55.75107,15.44851,88.62233,18.76235ZM194.08752,18.9734c38.25693,3.07065,61.31954,44.33245,43.92016,78.57845-8.26445,16.2656-25.59302,28.17214-42.83271,29.42832l-.55037.04087-.03494,11.77988-.03517,11.78083h-11.7081v-23.72539l-1.20509-.16564c-5.37117-.73692-11.23283-2.57389-16.34093-5.12021-2.73407-1.36144-5.54084-3.04704-5.48975-3.2949.13665-.66967,3.95815-10.97,4.07008-10.97.077,0,.79515.42562,1.59719.94487,5.17441,3.35335,10.01421,5.38804,15.37183,6.46455l1.92822.38688.03421-47.98595.03517-47.98543,1.13688-.0822c.62427-.04531,1.35218-.10254,1.61787-.12818,1.18155-.11172,6.87519-.07624,8.48544.05326ZM140.772,19.50067c17.82594,2.69,30.64052,17.64665,30.64052,35.76221v2.17584l-5.81889-.03612-5.82079-.03564-.08555-2.81605c-.35385-11.64418-8.22548-21.14073-19.31287-23.29759l-1.21363-.23667-2.57461-1.90251c-5.46694-4.04154-9.63754-7.10357-10.54842-7.7439l-.94985-.6686.70889-.23988c1.27994-.43391,4.43249-.99864,7.11308-1.27335,1.35147-.13811,6.13495.05193,7.86213.31226ZM194.5564,73.04747v42.2645l.79135-.09172c11.48711-1.33008,23.0291-8.55794,29.70967-18.60588,17.01464-25.58946,2.18914-60.11255-28.14956-65.5491-.8655-.15516-1.7488-.28199-1.9634-.28199h-.38807v42.26419ZM105.35916,47.60631c.68227.43773,2.33816,1.57033,3.68106,2.51709l2.43963,1.72171-.08151,1.93654c-.57605,13.63087,9.81292,24.70899,23.61346,25.17976l2.51377.08531v11.67912l-2.65136-.08793c-18.32976-.61097-32.59061-13.53296-34.97438-31.69113-.48479-3.69319.0057-10.21572,1.00023-13.29698l.1452-.45152,1.5373.80584c.84553.4432,2.09528,1.16444,2.7766,1.60218ZM111.35366,114.13993c.00381,7.01707,2.32675,12.83358,7.03752,17.62681,10.13278,10.30888,27.62555,9.22214,36.29328-2.25427.82177-1.08673.60931-1.07366,2.23098-.13712,1.77352,1.02353,5.52658,2.8795,7.33432,3.62499,1.86857.77186,1.80132.65922,1.06773,1.75949-12.42365,18.63322-39.36719,21.18335-55.1632,5.22146-6.78869-6.85999-10.15655-14.88537-10.46881-24.94734l-.08531-2.78207h11.75161l.00189,1.88806Z"/><path class="b" d="M88.62233,18.76235c10.78417,1.08736,20.98824,4.69048,29.7736,10.51288,1.31321.87036,5.52658,3.88577,5.94983,4.25782.06154.05456-.58935.4898-1.44724.96703-2.50046,1.39167-4.33101,2.97009-6.47739,5.58119l-1.03635,1.26152-1.84481-1.29049c-26.52006-18.55919-62.80907-10.37211-78.73298,17.76236-3.5779,6.32221-6.05836,14.2397-6.59944,21.07046l-.09434,1.18583.46537.14995c7.0035,2.25617,20.62049,4.12426,36.79816,5.04869l1.6181.09196v11.81766l-1.68749-.09292c-14.59426-.80108-26.61404-2.31272-34.92597-4.39185l-1.82984-.45699.08835.62999c.80023,5.71076,3.392,12.94812,6.59022,18.40152,9.72659,16.58332,26.77877,26.5481,46.05719,26.91121l3.75378.07105v11.68435l-3.75378-.08317c-42.27296-.94605-72.59143-39.32607-63.38504-80.24101C25.13712,37.45957,55.75107,15.44851,88.62233,18.76235ZM194.08752,18.9734c38.25693,3.07065,61.31954,44.33245,43.92016,78.57845-8.26445,16.2656-25.59302,28.17214-42.83271,29.42832l-.55037.04087-.03494,11.77988-.03517,11.78083h-11.7081v-23.72539l-1.20509-.16564c-5.37117-.73692-11.23283-2.57389-16.34093-5.12021-2.73407-1.36144-5.54084-3.04704-5.48975-3.2949.13665-.66967,3.95815-10.97,4.07008-10.97.077,0,.79515.42562,1.59719.94487,5.17441,3.35335,10.01421,5.38804,15.37183,6.46455l1.92822.38688.03421-47.98595.03517-47.98543,1.13688-.0822c.62427-.04531,1.35218-.10254,1.61787-.12818,1.18155-.11172,6.87519-.07624,8.48544.05326ZM140.772,19.50067c17.82594,2.69,30.64052,17.64665,30.64052,35.76221v2.17584l-5.81889-.03612-5.82079-.03564-.08555-2.81605c-.35385-11.64418-8.22548-21.14073-19.31287-23.29759l-1.21363-.23667-2.57461-1.90251c-5.46694-4.04154-9.63754-7.10357-10.54842-7.7439l-.94985-.6686.70889-.23988c1.27994-.43391,4.43249-.99864,7.11308-1.27335,1.35147-.13811,6.13495.05193,7.86213.31226ZM194.5564,73.04747v42.2645l.79135-.09172c11.48711-1.33008,23.0291-8.55794,29.70967-18.60588,17.01464-25.58946,2.18914-60.11255-28.14956-65.5491-.8655-.15516-1.7488-.28199-1.9634-.28199h-.38807v42.26419ZM105.35916,47.60631c.68227.43773,2.33816,1.57033,3.68106,2.51709l2.43963,1.72171-.08151,1.93654c-.57605,13.63087,9.81292,24.70899,23.61346,25.17976l2.51377.08531v11.67912l-2.65136-.08793c-18.32976-.61097-32.59061-13.53296-34.97438-31.69113-.48479-3.69319.0057-10.21572,1.00023-13.29698l.1452-.45152,1.5373.80584c.84553.4432,2.09528,1.16444,2.7766,1.60218ZM111.35366,114.13993c.00381,7.01707,2.32675,12.83358,7.03752,17.62681,10.13278,10.30888,27.62555,9.22214,36.29328-2.25427.82177-1.08673.60931-1.07366,2.23098-.13712,1.77352,1.02353,5.52658,2.8795,7.33432,3.62499,1.86857.77186,1.80132.65922,1.06773,1.75949-12.42365,18.63322-39.36719,21.18335-55.1632,5.22146-6.78869-6.85999-10.15655-14.88537-10.46881-24.94734l-.08531-2.78207h11.75161l.00189,1.88806Z"/></svg>